<svg xmlns="http://www.w3.org/2000/svg" version="1.1" xmlns:xlink="http://www.w3.org/1999/xlink" xmlns:svgjs="http://svgjs.dev/svgjs" width="50" height="50" viewBox="0 0 1000 1125"><g transform="matrix(1,0,0,1,1.7053025658242404e-13,0)"><svg viewBox="0 0 320 360" data-background-color="#ffffff" preserveAspectRatio="xMidYMid meet" height="1125" width="1000" xmlns="http://www.w3.org/2000/svg" xmlns:xlink="http://www.w3.org/1999/xlink"><g id="tight-bounds" transform="matrix(1,0,0,1,0,0)"><svg viewBox="0 0 320 360" height="360" width="320"><g><svg></svg></g><g><svg viewBox="0 0 320 360" height="360" width="320"><g><path xmlns="http://www.w3.org/2000/svg" d="M20.961 227.22l3.726 4.658-1.863-6.056c-0.466-2.795-3.726 0.466-1.863 1.398M25.153 224.425c1.397 2.329 2.795 4.658 2.795 6.987 0 3.261 2.795 4.658 5.123 5.589-3.261-3.726-5.124-13.974-7.918-12.576M204.017 26.929c7.918 0 15.371-0.932 23.756 0.931 20.495 5.124 37.729 15.371 49.374 29.811l32.606 52.169c1.397 13.042 4.192 27.482 3.726 43.319 3.261 0 2.795-4.658 6.521-5.59-3.726 9.316-5.59 20.961-6.521 34.469-2.329-7.453 0-18.632 0.466-24.687-3.261 5.124-5.124 1.397-5.124-0.932 0.466-3.726-1.397-3.261-2.795-4.658-5.124-4.658-8.384-9.782-12.11-17.7 2.329-6.055 2.795-14.905-4.658-19.563-2.329-1.397-5.124-3.726-6.521-7.453-1.863-5.124-5.124-11.179-4.193-19.097 0.466-2.329-6.987 5.124-11.179 1.863-18.166-12.576-36.332-27.016-58.224-39.127-11.645 0-20.029-4.192-24.221-9.316-3.726-4.658-0.932-10.713 4.658-11.179 3.261 0 6.987-0.932 9.782 0.932 0.466-1.863 2.329-4.192 4.657-4.192M157.904 16.215l0.932 0.466c4.658 0.932 6.987 7.453 12.11 5.124 0 3.261 0.466 6.521-0.466 8.85-1.397 3.726-5.59 3.726-8.85 3.726-31.208-1.863-49.374 11.179-68.471 22.358-5.124 3.261-10.713 5.59-14.906 9.782-20.029 18.632-41.921 35.866-47.045 70.335l-4.192 38.195c-0.466 4.192-5.124 8.384-4.192 13.508l3.26 22.824c-3.261-3.261-5.124 0.932-4.192 2.795 0.466 1.397 2.329 6.055 5.124 1.863 3.726 6.987 7.453 20.495 12.576 26.55 15.837 18.632 36.332 35.4 53.101 52.169 4.192-0.932 7.453-0.932 8.384-3.727 1.397 2.795-1.397 5.59-3.726 6.056 7.453 4.658 15.837 8.85 27.016 9.781 14.44 0.932 27.948 3.261 40.524 6.522 6.521-1.863 13.042-2.795 20.029-3.261 2.329 0 3.726-3.726 6.521-4.658l0.466-4.658c2.795 4.192 2.329-1.397 0.466-4.192 3.261 2.795 4.192 5.124 5.589 6.987 0-1.397 3.726-6.521 3.727-0.466l0.931-6.055c1.397-0.932 1.863 5.124 3.261 0.931 1.397-4.192 4.192-0.932 6.987-2.329-0.932 1.863-0.466 5.59 2.794 3.261l3.727-3.261c2.329 5.59 6.055 3.261 7.918 2.329 20.495-13.042 40.99-28.413 60.553-43.784l-0.466 6.055 2.329-7.453c2.329 2.329 4.192 0.466 5.124-0.931 2.795-4.658 6.521-9.316 12.577-13.508-7.453 20.029-16.303 35.866-27.482 48.908l-4.658 5.59c0 3.261-0.932 7.453-4.658 7.918-1.863 0.466-5.59-0.932-8.384 1.863-1.397 1.863 3.261 5.59-0.466 2.795-3.261-2.329-6.521 0-10.248 0.932-2.795 0.932 1.863 3.726 2.795 5.589 0.932 1.863 1.863 3.726 1.398 6.056l-5.124-5.59c-6.055 3.261-9.782 9.316-14.906 13.974-2.329 1.863-1.397 5.124-1.397 7.918-3.261 0-6.987-0.932-8.85 0.932-1.397 1.863-0.932 4.658-0.932 7.453-4.658-0.466-5.124-7.453-9.315-6.056-4.192 0.932-8.85 1.397-12.577 3.727 2.795 5.59-4.658 2.329-3.726 3.26-6.987-4.192-13.042-7.453-20.495-4.658-15.837-5.124-35.4-2.795-49.84-0.931 0-2.329 0.466-4.658-0.466-5.124-0.932 2.329-3.726 1.397-3.26 1.397-8.85-6.055-17.7-9.782-27.016-14.905-8.384 0.932-16.303-3.261-18.632-5.59-6.521-6.055-13.974-2.795-20.029-4.192-13.042-3.261-17.7-16.769-19.098-26.084-0.932-4.658-4.658-6.521-6.055-6.056-6.055-19.563-15.371-37.263-22.824-55.429-1.863-4.658-1.397-9.316-1.397-14.44 2.329 0.932 4.658 0.466 4.192-2.794-2.329-15.371-7.918-27.016-13.974-38.195 3.261-15.837 3.726-34.469 11.179-48.443 6.521-12.576 18.632-19.098 27.016-29.811 2.795-3.726 2.795-8.85 5.59-12.11 9.316-9.316 18.632-19.098 28.879-27.482 4.658-3.726 10.247 0 17.234-1.397 2.329-8.384 11.645-15.837 20.495-13.508 3.726 0.932 11.179-8.85 13.508-9.782 3.726-1.397 1.863 3.726 1.863 6.987 8.85-6.987 20.961-10.713 32.14-14.906" fill="#77d4fc" fill-rule="nonzero" stroke="none" stroke-width="1" stroke-linecap="butt" stroke-linejoin="miter" stroke-miterlimit="10" stroke-dasharray="" stroke-dashoffset="0" font-family="none" font-weight="none" font-size="none" text-anchor="none" style="mix-blend-mode: normal" data-fill-palette-color="tertiary"></path></g><g transform="matrix(1,0,0,1,64,119.59480519480519)"><svg viewBox="0 0 192 120.81038961038962" height="120.81038961038962" width="192"><g><svg viewBox="0 0 192 120.81038961038962" height="120.81038961038962" width="192"><g><svg viewBox="0 0 192 120.81038961038962" height="120.81038961038962" width="192"><g><svg viewBox="0 0 192 120.81038961038962" height="120.81038961038962" width="192"><g id="textblocktransform"><svg viewBox="0 0 192 120.81038961038962" height="120.81038961038962" width="192" id="textblock"><g><svg viewBox="0 0 192 120.81038961038962" height="120.81038961038962" width="192"><g transform="matrix(1,0,0,1,0,0)"><svg width="192" viewBox="3.549999952316284 -43.099998474121094 77 48.44999694824219" height="120.81038961038962" data-palette-color="#77d4fc"><path d="M38.3-38.35Q38.3-36.85 37.68-36.1 37.05-35.35 35.65-35.35L35.65-35.35Q35.55-34.3 35.2-31.7L35.2-31.7Q34.7-28.2 34.65-27.8L34.65-27.8Q30.2 5.35 16.1 5.35L16.1 5.35Q11.95 5.35 9.63 3 7.3 0.65 7.3-2.9L7.3-2.9Q7.3-9.25 12.7-14.13 18.1-19 26.9-22.2L26.9-22.2Q27.45-25.75 27.75-28.55L27.75-28.55 28.65-36.1Q25.65-36.4 23.05-36.4L23.05-36.4Q16.1-36.4 12.8-35.05 9.5-33.7 9.5-30.65L9.5-30.65Q9.5-29.15 10.5-27.4L10.5-27.4Q10.8-26.9 10.8-26.35L10.8-26.35Q10.8-25.3 9.73-24.48 8.65-23.65 7.4-23.65L7.4-23.65Q5.8-23.65 4.95-25L4.95-25Q3.55-27.3 3.55-30.35L3.55-30.35Q3.55-42.35 24.55-42.35L24.55-42.35Q30.65-42.35 35.45-41.15L35.45-41.15Q38.3-40.45 38.3-38.35L38.3-38.35ZM16.75 0Q19.2 0 21.65-3.7 24.1-7.4 25.95-16.65L25.95-16.65Q13.75-11.3 13.75-3.55L13.75-3.55Q13.75-1.85 14.55-0.93 15.35 0 16.75 0L16.75 0ZM80.55-32Q80.55-27.75 77.55-24.68 74.55-21.6 68.8-20.25L68.8-20.25Q71.9-19.4 73.5-17.48 75.1-15.55 75.1-13.05L75.1-13.05Q75.1-9.1 72.62-6.2 70.15-3.3 65.4-1.73 60.65-0.15 53.95-0.15L53.95-0.15Q51.45-0.15 49.95-0.3L49.95-0.3Q49.9 1.1 48.75 1.8 47.6 2.5 45.8 2.5L45.8 2.5Q44 2.5 43.32 1.7 42.65 0.9 42.75-0.65L42.75-0.65Q43.2-7.65 44.5-15.33 45.8-23 47.8-30.15L47.8-30.15Q48.15-31.4 49.2-31.9 50.25-32.4 51.95-32.4L51.95-32.4Q55-32.4 55-30.7L55-30.7Q55-30 54.7-29.1L54.7-29.1Q53.4-25.2 52.1-18.53 50.8-11.85 50.25-5.8L50.25-5.8Q52.65-5.6 54.15-5.6L54.15-5.6Q61.15-5.6 64.42-7.63 67.7-9.65 67.7-12.8L67.7-12.8Q67.7-15 65.82-16.5 63.95-18 59.55-18.15L59.55-18.15Q58.55-18.2 58.15-18.65 57.75-19.1 57.75-20.1L57.75-20.1Q57.75-21.55 58.35-22.45 58.95-23.35 60.55-23.4L60.55-23.4Q64.1-23.5 66.97-24.45 69.85-25.4 71.5-27.13 73.15-28.85 73.15-31.15L73.15-31.15Q73.15-34.05 70.3-35.73 67.45-37.4 61.55-37.4L61.55-37.4Q56.2-37.4 51.2-36.02 46.2-34.65 42.7-32.55L42.7-32.55Q41.1-31.6 40-31.6L40-31.6Q39.1-31.6 38.62-32.23 38.15-32.85 38.15-33.8L38.15-33.8Q38.15-35.05 38.67-35.95 39.2-36.85 41.2-38L41.2-38Q45.4-40.4 51.05-41.75 56.7-43.1 62.6-43.1L62.6-43.1Q71.65-43.1 76.1-40.05 80.55-37 80.55-32L80.55-32Z" opacity="1" transform="matrix(1,0,0,1,0,0)" fill="#77d4fc" class="wordmark-text-0" data-fill-palette-color="primary" id="text-0"></path></svg></g></svg></g></svg></g></svg></g><g></g></svg></g></svg></g></svg></g></svg></g><defs></defs></svg><rect width="320" height="360" fill="none" stroke="none" visibility="hidden"></rect></g></svg></g></svg>